<svg xmlns="http://www.w3.org/2000/svg" xmlns:xlink="http://www.w3.org/1999/xlink" viewBox="0 0 134.004 134.001">
  <defs>
    <style>
      .cls-1 {
        fill: #e6e6e6;
      }

      .cls-2 {
        fill: #ffa700;
      }

      .cls-3 {
        fill: #ebebeb;
        font-size: 21px;
        font-family: Poppins-Medium, Poppins;
        font-weight: 500;
      }

      .cls-4 {
        filter: url(#_100_);
      }

      .cls-5 {
        filter: url(#Subtraction_25);
      }
    </style>
    <filter id="Subtraction_25" x="0" y="0" width="134.004" height="134.001" filterUnits="userSpaceOnUse">
      <feOffset dy="3" input="SourceAlpha"/>
      <feGaussianBlur stdDeviation="3" result="blur"/>
      <feFlood flood-opacity="0.161"/>
      <feComposite operator="in" in2="blur"/>
      <feComposite in="SourceGraphic"/>
    </filter>
    <filter id="_100_" x="37.003" y="47" width="60" height="41" filterUnits="userSpaceOnUse">
      <feOffset dy="3" input="SourceAlpha"/>
      <feGaussianBlur stdDeviation="2" result="blur-2"/>
      <feFlood/>
      <feComposite operator="in" in2="blur-2"/>
      <feComposite in="SourceGraphic"/>
    </filter>
  </defs>
  <g id="Group_2" data-name="Group 2" transform="translate(-351.999 -2929)">
    <path id="Subtraction_22" data-name="Subtraction 22" class="cls-1" d="M58,116a58,58,0,1,1,58-58A58.068,58.068,0,0,1,58,116ZM58,7A51.013,51.013,0,0,0,38.15,104.992a51.013,51.013,0,0,0,39.7-93.984A50.681,50.681,0,0,0,58,7Z" transform="translate(361 2935)"/>
    <g class="cls-5" transform="matrix(1, 0, 0, 1, 352, 2929)">
      <path id="Subtraction_25-2" data-name="Subtraction 25" class="cls-2" d="M58,116A58,58,0,1,1,58,0V7A51.014,51.014,0,0,0,38.15,104.992a51.013,51.013,0,0,0,39.7-93.985A50.679,50.679,0,0,0,58,7l0-7a58,58,0,1,1,0,116Z" transform="translate(9 6)"/>
    </g>
    <g class="cls-4" transform="matrix(1, 0, 0, 1, 352, 2929)">
      <text id="_100_2" data-name="100%" class="cls-3" transform="translate(43 72)"><tspan x="0" y="0">100%</tspan></text>
    </g>
  </g>
</svg>
