<?xml version="1.0" encoding="utf-8"?>
<!-- Generator: Adobe Illustrator 21.1.0, SVG Export Plug-In . SVG Version: 6.00 Build 0)  -->
<svg version="1.1" id="Layer_1" xmlns="http://www.w3.org/2000/svg" xmlns:xlink="http://www.w3.org/1999/xlink" x="0px" y="0px"
	 viewBox="0 0 69.8 13.6" style="enable-background:new 0 0 69.8 13.6;" xml:space="preserve">
<title>signature</title>
<g>
	<path d="M4.8,11.6c-0.5,0-1,0-1.5-0.1s-1-0.1-1.4-0.3c-0.2,0-0.3-0.1-0.5-0.2C1.1,11,1,10.9,0.8,10.8c-0.2-0.1-0.3-0.2-0.4-0.4
		c-0.1-0.1-0.2-0.3-0.2-0.5c0-0.2,0-0.4,0.1-0.6C0.4,9.2,0.5,9.1,0.8,9C1,8.9,1.2,8.8,1.4,8.7C1.7,8.6,2,8.6,2.2,8.5
		s0.5-0.1,0.7-0.1s0.4,0,0.6-0.1c1-0.1,2.1-0.2,3.1-0.3S8.7,8,9.8,8c0.3,0,0.5,0,0.8,0c0.3,0,0.5,0,0.8,0c0.2-0.2,0.4-0.4,0.6-0.7
		c0.2-0.2,0.4-0.4,0.5-0.7c0.4-0.4,0.7-0.9,1-1.3c0.3-0.4,0.7-0.9,1.1-1.3c-1-0.1-2.1-0.2-3.2-0.1c-1.1,0-2.2,0.2-3.2,0.4
		C8,4.4,7.8,4.4,7.6,4.5S7.2,4.6,7,4.7C7,4.7,6.9,4.7,6.8,4.8C6.7,4.9,6.7,4.9,6.6,4.9C6.5,5,6.4,5,6.3,5c-0.1,0-0.1,0-0.2-0.1
		c-0.1-0.1-0.1-0.2,0-0.3c0.1-0.1,0.1-0.2,0.3-0.3S6.7,4.1,6.9,4C7,3.9,7.2,3.9,7.4,3.8c0.2-0.1,0.3-0.1,0.5-0.1
		c0.1,0,0.3-0.1,0.3-0.1c1-0.2,2-0.3,3.1-0.3c1,0,2.1,0,3.1,0.1c0.1,0,0.2,0,0.3,0c0.1,0,0.2,0,0.3,0c0.1,0,0.2,0.1,0.3,0.1
		c0.1,0,0.2,0.1,0.2,0.2c0,0.1,0,0.2-0.1,0.3c-0.1,0.1-0.2,0.2-0.3,0.3c-0.1,0.1-0.2,0.2-0.3,0.4c-0.1,0.1-0.2,0.3-0.3,0.4
		c-0.4,0.5-0.8,1-1.2,1.5C13,7,12.6,7.5,12.2,8c0.4,0,0.8,0,1.2,0c0.4,0,0.8,0,1.2,0c0.1,0,0.3,0,0.4,0s0.3,0,0.4,0
		c0.2,0,0.3,0,0.5,0c0.2,0,0.4,0,0.5,0c0.1,0,0.1,0.1,0.1,0.1c0,0,0.1,0.1,0.1,0.2c0,0.1,0,0.1,0,0.2c0,0.1-0.1,0.1-0.1,0.1
		c-0.1,0-0.1,0.1-0.2,0.1c-0.1,0-0.2,0-0.3,0c-0.1,0-0.2,0-0.3,0c-0.1,0-0.2,0-0.2,0l-2.1,0h-1.9c-0.1,0-0.2,0-0.3,0.1
		c-0.1,0.1-0.1,0.1-0.2,0.2c-0.3,0.3-0.6,0.5-0.9,0.8c-0.3,0.2-0.6,0.5-0.9,0.7c-0.4,0.2-0.7,0.4-1.1,0.5c-0.4,0.1-0.8,0.3-1.2,0.3
		S6.4,11.5,6,11.5C5.6,11.5,5.2,11.6,4.8,11.6z M10.6,8.7c-1.2,0-2.4,0-3.5,0.1S4.8,8.9,3.6,9c-0.4,0-0.8,0.1-1.3,0.2
		S1.5,9.4,1.1,9.6C0.9,9.7,0.8,9.8,0.8,9.9c0,0.1,0.1,0.2,0.3,0.3c0.3,0.2,0.6,0.3,1,0.4s0.7,0.2,1.1,0.2c0.4,0,0.8,0.1,1.2,0.1
		c0.4,0,0.7,0,1.1,0c0.9,0,1.7-0.2,2.6-0.5c0.4-0.1,0.7-0.3,1-0.4c0.3-0.2,0.6-0.4,0.8-0.5c0.2-0.2,0.4-0.3,0.5-0.5
		S10.6,8.7,10.6,8.7z"/>
	<path d="M16.5,8.1c0.2,0,0.3,0.1,0.3,0.2c0.1,0.1,0.1,0.2,0.1,0.3s-0.1,0.2-0.2,0.3c0.1,0,0.3,0,0.4-0.1s0.3-0.1,0.4-0.2
		s0.3-0.1,0.4-0.2c0.1-0.1,0.3-0.1,0.4-0.2c0.1,0,0.2,0,0.4,0s0.2,0,0.3,0.1c0.1,0.1,0.1,0.2,0.1,0.2s0,0.1,0,0.2l0.6-0.2
		c0.2-0.1,0.4-0.1,0.7-0.2s0.4-0.1,0.7-0.2c0.1,0,0.1,0,0.2-0.1c0.1,0,0.2,0,0.2-0.1s0.2,0,0.2,0c0.1,0,0.1,0,0.2,0.1
		c0.1,0,0.1,0.1,0.1,0.2c0,0.1,0,0.1,0,0.2S22,8.6,21.9,8.7c-0.1,0-0.1,0.1-0.2,0.1c-0.3,0-0.5,0.1-0.8,0.2
		c-0.3,0.1-0.5,0.2-0.8,0.3c-0.3,0.1-0.5,0.2-0.8,0.2c-0.3,0.1-0.5,0.1-0.8,0.1c-0.1,0-0.3,0-0.3-0.1C18.1,9.3,18,9.2,18,9.1
		c-0.3,0.1-0.5,0.2-0.8,0.3c-0.3,0.1-0.5,0.1-0.8,0.1c-0.2,0-0.3-0.1-0.3-0.1S16,9.1,16,9C16,9,16,8.9,16,8.8c0-0.1,0.1-0.2,0.2-0.3
		c0-0.1,0-0.2,0.1-0.3C16.3,8.1,16.4,8.1,16.5,8.1z"/>
	<path d="M23.4,8.1c0,0,0.1,0,0.1,0.1c0,0,0.1,0,0.1,0.1c0.2,0,0.3,0,0.5,0.1c0.2,0.1,0.2,0.2,0.3,0.3c0,0.1,0,0.2-0.1,0.3
		c0.2,0,0.4-0.1,0.5-0.1s0.4-0.1,0.5-0.2c0.2-0.1,0.3-0.1,0.5-0.2c0.2-0.1,0.3-0.1,0.5-0.2c0.1,0,0.2,0,0.3-0.1c0.1,0,0.2,0,0.3,0.1
		C27,8.2,27,8.2,27,8.3s0,0.1,0,0.2c0,0.1-0.1,0.1-0.1,0.2c-0.1,0-0.1,0.1-0.2,0.1c-0.3,0-0.5,0.1-0.8,0.2s-0.5,0.2-0.7,0.3
		c-0.1,0-0.2,0.1-0.4,0.1s-0.3,0.1-0.4,0.1c-0.1,0-0.3,0-0.4,0.1c-0.1,0-0.3,0-0.4-0.1c-0.1-0.1-0.2-0.1-0.3-0.2s0-0.2,0-0.3
		C23.3,9,23.1,9,22.9,9c-0.2,0.1-0.4,0.1-0.6,0.2c-0.2,0.1-0.4,0.1-0.6,0.2c-0.1,0-0.3,0-0.4,0c-0.1,0-0.3-0.1-0.3-0.2
		c-0.1-0.2-0.1-0.3,0-0.5s0.2-0.3,0.3-0.4c0.2-0.1,0.3-0.2,0.5-0.3C22,8,22.1,8,22.3,8c0.2,0,0.4,0,0.6,0C23,8,23.2,8,23.4,8.1z
		 M21.8,8.8c0.1,0,0.2,0,0.2-0.1s0.2-0.1,0.2-0.1C22.1,8.6,22,8.7,21.8,8.8z"/>
	<path d="M26.7,8.1c0.1,0,0.1,0,0.2,0s0.1,0.1,0.2,0.1c0.1,0.1,0.1,0.2,0.1,0.2c0,0.1,0,0.2-0.1,0.2c0.2,0,0.4-0.1,0.6-0.1
		c0.2-0.1,0.4-0.1,0.6-0.2c0.1,0,0.2-0.1,0.3-0.1c0.1,0,0.2-0.1,0.3-0.1s0.2,0,0.3,0c0.1,0,0.2,0,0.3,0.1c0.1,0.1,0.2,0.1,0.2,0.2
		c0,0.1,0,0.2,0,0.3c0.1,0,0.2-0.1,0.3-0.1c0.1,0,0.2-0.1,0.3-0.1c0.2-0.1,0.4-0.1,0.7-0.2s0.4-0.1,0.7-0.2c0.1,0,0.2-0.1,0.4-0.1
		c0.1,0,0.3,0,0.4,0.1c0.1,0,0.1,0.1,0.1,0.2c0,0.1,0,0.1,0,0.2c0,0.1-0.1,0.1-0.1,0.2c-0.1,0-0.1,0.1-0.2,0.1
		c-0.3,0-0.6,0.1-0.9,0.2c-0.3,0.1-0.6,0.2-0.9,0.3c-0.1,0-0.2,0.1-0.3,0.1S30,9.4,29.9,9.5c-0.1,0-0.2,0.1-0.4,0.1
		c-0.1,0-0.2,0-0.3,0c-0.1,0-0.2-0.1-0.2-0.2c0-0.1,0-0.2,0-0.4c-0.2,0-0.3,0-0.5,0.1c-0.2,0-0.3,0.1-0.5,0.1
		c-0.1,0-0.2,0.1-0.4,0.1c-0.1,0-0.2,0.1-0.4,0.1S27,9.4,26.9,9.4s-0.2,0-0.4,0c-0.1,0-0.1,0-0.2-0.1c-0.1-0.1-0.2-0.1-0.2-0.2
		c0-0.1,0-0.1,0-0.2c0-0.1,0.1-0.1,0.1-0.2c0.1-0.1,0.1-0.1,0.2-0.2c0-0.1,0-0.2,0-0.3C26.5,8.1,26.6,8.1,26.7,8.1z"/>
	<path d="M36.4,10.5c-0.2-0.3-0.2-0.5-0.2-0.8s0.1-0.5,0.3-0.8c0.1-0.2,0.3-0.5,0.5-0.7c0.2-0.2,0.4-0.4,0.6-0.6
		c0.5-0.5,1.1-0.9,1.7-1.3c0.6-0.4,1.2-0.7,1.8-1.1s1.2-0.7,1.9-1s1.3-0.6,1.9-0.8c0.3-0.1,0.6-0.2,0.9-0.4C46,3.1,46.3,3,46.7,2.9
		c0.1,0,0.2-0.1,0.3-0.1s0.3-0.1,0.4-0.1c0.1,0,0.3,0,0.4,0S48,2.9,48.1,3c0.1,0.1,0.1,0.2,0.1,0.3c0,0.1,0,0.2,0,0.4
		c0,0.1,0,0.2-0.1,0.4S48.1,4.2,48,4.3c-0.1,0.3-0.3,0.7-0.4,1s-0.3,0.6-0.5,0.9l-1,1.8c0.5,0,1,0,1.6,0c0.5,0,1,0,1.6,0
		c0.1,0,0.1,0,0.2,0c0.1,0,0.1,0,0.2,0.1c0.1,0,0.1,0.1,0.1,0.1c0,0.1,0,0.1,0,0.2c0,0.1-0.1,0.1-0.1,0.2c-0.1,0-0.1,0.1-0.2,0.1
		c-0.1,0-0.2,0-0.3,0c-0.1,0-0.2,0-0.2,0l-3.1,0c-0.1,0.3-0.3,0.5-0.4,0.8c-0.1,0.3-0.3,0.5-0.4,0.8c-0.1,0.1-0.1,0.3-0.2,0.4
		c-0.1,0.1-0.1,0.3-0.1,0.4c0,0.2-0.1,0.3-0.2,0.3s-0.2,0.1-0.4,0.1c-0.1,0-0.3,0-0.4,0c-0.1,0-0.3,0-0.4-0.1
		c-0.7-0.2-1.3-0.4-2-0.7c-0.7-0.3-1.3-0.6-1.8-1c-0.1-0.1-0.2-0.2-0.3-0.3C39,9.2,38.9,9.1,38.9,9c-0.1-0.1-0.1-0.3-0.1-0.4
		c0-0.1,0.1-0.2,0.3-0.3c0.2-0.1,0.4-0.1,0.7-0.1c0.2,0,0.5,0,0.7,0c0.3,0,0.6,0,1,0c0.3,0,0.6,0,1,0c0.5,0,1,0,1.5,0
		c0.5,0,1,0,1.5,0l0.3-0.5c0.2-0.4,0.4-0.7,0.6-1c0.2-0.3,0.4-0.7,0.6-1C46.9,5.2,47,5,47.1,4.9c0.1-0.2,0.2-0.4,0.3-0.6
		c0-0.1,0.1-0.2,0.2-0.4c0.1-0.2,0.1-0.3,0.1-0.4c-0.1,0-0.2,0-0.4,0S47,3.5,46.8,3.5s-0.3,0.1-0.4,0.1s-0.2,0.1-0.3,0.1
		c-0.3,0.1-0.7,0.2-1,0.3c-0.3,0.1-0.6,0.2-0.9,0.4c-0.7,0.3-1.3,0.6-2,0.9c-0.7,0.3-1.3,0.7-1.9,1.1C40,6.7,39.8,6.8,39.5,7
		c-0.3,0.2-0.6,0.4-0.8,0.6c-0.3,0.2-0.5,0.4-0.8,0.6c-0.2,0.2-0.5,0.5-0.7,0.7C37.2,9,37.1,9.1,37,9.2c-0.1,0.1-0.1,0.2-0.1,0.3
		c0,0.1-0.1,0.2-0.1,0.3s0,0.2,0.1,0.3c0.1,0.1,0.1,0.2,0,0.3c0,0.1-0.1,0.2-0.2,0.2c-0.1,0-0.2,0.1-0.2,0.1
		C36.5,10.6,36.4,10.6,36.4,10.5z M45,8.6c-0.6,0-1.1,0-1.7,0c-0.6,0-1.1,0-1.7,0c-0.3,0-0.6,0-0.9,0c-0.3,0-0.6,0-0.9,0.1l-0.5,0.1
		c0.1,0.1,0.2,0.2,0.3,0.3c0.1,0.1,0.3,0.1,0.3,0.2c0.2,0.1,0.4,0.3,0.7,0.4c0.2,0.1,0.5,0.2,0.7,0.3c0.2,0.1,0.5,0.2,0.7,0.3
		c0.2,0.1,0.5,0.2,0.7,0.3c0.1,0,0.1,0,0.2,0.1c0.1,0,0.2,0.1,0.3,0.1s0.2,0.1,0.3,0.1c0.1,0,0.2,0,0.3,0c0-0.2,0.1-0.5,0.2-0.7
		c0.1-0.2,0.2-0.4,0.3-0.6L45,8.6z"/>
	<path d="M53.3,5.2c-0.4,0.3-0.7,0.5-1.1,0.8c-0.3,0.3-0.7,0.6-1,0.9c-0.2,0.2-0.3,0.4-0.5,0.5c-0.2,0.2-0.3,0.4-0.5,0.6
		c0,0-0.1,0.1-0.1,0.2c-0.1,0.1-0.1,0.1-0.2,0.2c-0.1,0.1-0.1,0.2-0.2,0.3c-0.1,0.1-0.1,0.2-0.1,0.3c0.1,0,0.3-0.1,0.4-0.1
		c0.1-0.1,0.3-0.1,0.4-0.2c0.2-0.1,0.5-0.2,0.7-0.3c0.2-0.1,0.5-0.2,0.7-0.2c0.1,0,0.2-0.1,0.4-0.1c0.2,0,0.3,0,0.4,0.1
		c0.1,0.1,0.1,0.1,0.1,0.2c0,0.1,0,0.1,0,0.2c0,0.1-0.1,0.1-0.1,0.2s-0.1,0.1-0.2,0.1c-0.1,0-0.3,0.1-0.4,0.1
		c-0.1,0-0.3,0.1-0.4,0.1C51.3,9,51,9.2,50.7,9.3c-0.3,0.1-0.6,0.2-1,0.3c-0.1,0-0.2,0-0.3,0c-0.1,0-0.2-0.1-0.3-0.2
		C49,9.3,48.9,9.1,49,8.9s0.2-0.4,0.3-0.6s0.3-0.4,0.5-0.6c0.2-0.2,0.3-0.3,0.4-0.4c0.3-0.4,0.7-0.7,1-1c0.3-0.3,0.7-0.6,1.1-1
		c0.1-0.1,0.2-0.2,0.4-0.3c0.1-0.1,0.3-0.2,0.4-0.2c0.1,0,0.2,0,0.2,0c0.1,0,0.1,0.1,0.1,0.1c0,0.1,0,0.1,0,0.2
		C53.4,5.1,53.4,5.1,53.3,5.2z"/>
	<path d="M55,8.8c-0.1,0-0.1,0-0.2,0c-0.1,0-0.2,0-0.3,0c0,0.2-0.1,0.3-0.3,0.5c-0.2,0.1-0.4,0.2-0.6,0.3c-0.2,0.1-0.5,0.1-0.7,0.1
		c-0.2,0-0.4-0.1-0.5-0.2c-0.2-0.2-0.3-0.3-0.3-0.5c0-0.2,0.1-0.4,0.2-0.7c0.1-0.2,0.3-0.5,0.5-0.7s0.4-0.5,0.6-0.7
		c0.2-0.2,0.4-0.4,0.6-0.6C54.1,6.2,54.3,6,54.3,6l0.9-0.8c0,0,0.1-0.1,0.2-0.2c0.1-0.1,0.1-0.1,0.2-0.2c0.1-0.1,0.1-0.1,0.2-0.1
		c0.1,0,0.1,0,0.2,0c0.2,0.1,0.2,0.2,0.1,0.3c-0.1,0.1-0.1,0.3-0.3,0.4c-0.1,0.1-0.3,0.3-0.4,0.4C55.3,5.9,55.2,6,55.2,6
		c-0.4,0.3-0.7,0.6-1,1S53.6,7.7,53.3,8c0,0-0.1,0.1-0.1,0.2C53.1,8.4,53,8.5,53,8.6c-0.1,0.1-0.1,0.2-0.2,0.3C52.8,9,52.8,9,52.8,9
		l0,0c0,0,0.1,0,0.2,0s0.2,0,0.3,0c0.1,0,0.2,0,0.3-0.1c0.1,0,0.2,0,0.2-0.1c0.1,0,0.2-0.1,0.3-0.1c-0.1,0-0.2-0.1-0.3-0.2
		c-0.1-0.1-0.1-0.2,0-0.3c0-0.1,0.1-0.2,0.1-0.2s0.1,0,0.2,0c0.1,0,0.1,0,0.2,0s0.2,0,0.2,0c0.2,0,0.4,0,0.6,0c0.2,0,0.4,0,0.6,0
		l1.3,0c0.1,0,0.2,0,0.3,0c0.1,0,0.2,0,0.3,0.1s0.2,0.1,0.2,0.2c0,0.1,0,0.2-0.1,0.3c0,0.1-0.1,0.1-0.2,0.1c-0.1,0-0.2,0-0.3,0
		s-0.2,0-0.4,0s-0.2,0-0.3,0c-0.2,0-0.5,0-0.7,0C55.4,8.8,55.2,8.8,55,8.8z"/>
	<path d="M62.8,8.7c-0.2,0-0.4,0-0.5,0.1c-0.2,0-0.4,0.1-0.5,0.1c-0.5,0.1-1,0.2-1.4,0.3c-0.5,0.1-1,0.2-1.4,0.2c-0.1,0-0.3,0-0.4,0
		c-0.1,0-0.3,0-0.4,0c-0.1,0-0.3,0-0.4-0.1s-0.2-0.1-0.3-0.2c-0.1-0.1-0.2-0.2-0.2-0.3C57,8.9,57,8.8,57,8.7c0-0.1,0-0.2,0-0.3
		c0-0.1,0.1-0.2,0.2-0.3C57.3,8,57.4,8,57.5,8s0.3-0.1,0.4-0.1c0.2,0,0.3,0,0.5,0c0.2,0,0.3,0,0.4,0.1c0.1,0,0.2,0.1,0.2,0.2
		s0,0.2,0,0.3c0,0.1-0.1,0.2-0.2,0.2s-0.2,0.1-0.3,0.1c-0.1,0-0.2,0-0.4,0c-0.1,0-0.2,0-0.3,0c0,0,0.1,0.1,0.2,0.1s0.2,0,0.3,0
		c0.1,0,0.2,0,0.3,0c0.1,0,0.1,0,0.2,0c0.4,0,0.8-0.1,1.2-0.2c0.4-0.1,0.8-0.2,1.2-0.3c0.3-0.1,0.6-0.1,0.8-0.2
		c0.3-0.1,0.6-0.1,0.8-0.1c0.1,0,0.2,0,0.3,0.1c0.1,0.1,0.1,0.1,0.2,0.2c0,0.1,0,0.2,0,0.2C63.1,8.7,63,8.7,62.8,8.7z"/>
	<path d="M66.7,5.2C66.3,5.4,66,5.7,65.6,6c-0.3,0.3-0.7,0.6-1,0.9c-0.2,0.2-0.3,0.4-0.5,0.5C64,7.6,63.8,7.8,63.7,8
		c0,0-0.1,0.1-0.1,0.2c-0.1,0.1-0.1,0.1-0.2,0.2c-0.1,0.1-0.1,0.2-0.2,0.3c-0.1,0.1-0.1,0.2-0.1,0.3c0.1,0,0.3-0.1,0.4-0.1
		c0.1-0.1,0.3-0.1,0.4-0.2c0.2-0.1,0.5-0.2,0.7-0.3c0.2-0.1,0.5-0.2,0.7-0.2c0.1,0,0.2-0.1,0.4-0.1c0.2,0,0.3,0,0.4,0.1
		c0.1,0.1,0.1,0.1,0.1,0.2c0,0.1,0,0.1,0,0.2c0,0.1-0.1,0.1-0.1,0.2s-0.1,0.1-0.2,0.1c-0.1,0-0.3,0.1-0.4,0.1
		c-0.1,0-0.3,0.1-0.4,0.1C64.7,9,64.3,9.2,64,9.3c-0.3,0.1-0.6,0.2-1,0.3c-0.1,0-0.2,0-0.3,0c-0.1,0-0.2-0.1-0.3-0.2
		c-0.1-0.2-0.1-0.3-0.1-0.6s0.2-0.4,0.3-0.6s0.3-0.4,0.5-0.6c0.2-0.2,0.3-0.3,0.4-0.4c0.3-0.4,0.7-0.7,1-1c0.3-0.3,0.7-0.6,1.1-1
		C65.8,5.1,65.9,5,66,4.9c0.1-0.1,0.3-0.2,0.4-0.2c0.1,0,0.2,0,0.2,0c0.1,0,0.1,0.1,0.1,0.1c0,0.1,0,0.1,0,0.2
		C66.8,5.1,66.7,5.1,66.7,5.2z"/>
	<path d="M69.4,8.7c-0.4,0-0.8,0-1.2,0c-0.4,0-0.8,0-1.2-0.1c0,0-0.1,0-0.1,0c0,0.1-0.1,0.3-0.2,0.4c-0.1,0.1-0.2,0.2-0.3,0.3
		c-0.1,0.1-0.2,0.2-0.4,0.2s-0.3,0-0.4,0c-0.1,0-0.2-0.1-0.3-0.2c-0.1-0.1-0.1-0.2-0.1-0.3c0-0.1,0-0.2,0-0.3c0-0.1,0.1-0.2,0.2-0.3
		c0.1-0.1,0.2-0.2,0.4-0.3c0.2-0.1,0.3-0.1,0.5,0c0-0.1,0.1-0.2,0.2-0.3c0.1-0.1,0.2-0.1,0.4,0C66.9,7.9,67.1,8,67.2,8
		c0.1,0,0.3,0.1,0.4,0.1c0.2,0,0.3,0,0.5,0c0.1,0,0.3,0,0.4,0c0.2,0,0.3,0,0.5,0c0.2,0,0.4,0,0.5,0c0.1,0,0.1,0.1,0.2,0.2
		s0,0.1,0,0.2s0,0.1-0.1,0.2C69.6,8.7,69.5,8.7,69.4,8.7z M65.8,8.9c0,0,0.1,0,0.1,0V8.7C66,8.8,65.9,8.8,65.8,8.9
		C65.9,8.8,65.9,8.8,65.8,8.9z"/>
</g>
</svg>
